<?xml version="1.0" standalone="no"?>
<!DOCTYPE svg PUBLIC "-//W3C//DTD SVG 20010904//EN"
 "http://www.w3.org/TR/2001/REC-SVG-20010904/DTD/svg10.dtd">
<svg version="1.0" xmlns="http://www.w3.org/2000/svg"
 viewBox="0 0 102.000000 103.000000"
 preserveAspectRatio="xMidYMid meet">
<metadata>
Created by potrace 1.10, written by Peter Selinger 2001-2011
</metadata>
<g transform="translate(0.000000,103.000000) scale(0.100000,-0.100000)"
fill="currentColor" stroke="none">
<path d="M648 980 c-30 -30 -39 -45 -36 -67 3 -27 2 -28 -118 -58 -137 -34
-187 -63 -233 -132 -33 -49 -46 -112 -38 -175 l5 -41 -64 6 c-36 2 -67 1 -70
-5 -3 -5 -5 -110 -5 -233 l2 -224 -43 -3 c-30 -2 -43 -7 -43 -18 0 -13 49 -15
370 -18 203 -1 376 0 384 3 24 9 -8 35 -45 35 l-34 0 0 158 0 158 30 29 c17
16 60 76 96 132 54 84 69 102 80 92 35 -29 128 48 128 107 0 32 -12 47 -130
165 -153 152 -168 157 -236 89z m209 -122 c68 -68 123 -128 123 -134 0 -7 -16
-26 -36 -44 l-37 -32 -128 128 c-71 71 -129 133 -129 138 0 16 53 66 69 66 9
0 71 -55 138 -122z m-115 -105 l97 -98 -65 -99 c-85 -130 -260 -316 -297 -316
-17 0 -32 9 -42 24 -15 22 -15 27 -1 53 8 15 51 64 95 108 45 44 81 85 81 91
0 19 -56 62 -90 69 -41 9 -94 -11 -124 -46 -21 -25 -32 -29 -74 -29 -56 0 -62
7 -62 74 0 60 43 141 92 174 31 20 232 85 283 91 6 0 54 -43 107 -96z m-192
-229 c12 -12 6 -14 -53 -14 -70 0 -86 11 -39 29 32 12 71 6 92 -15z m-84 -105
c-70 -63 -90 -100 -82 -145 9 -44 48 -74 98 -74 36 0 46 6 99 61 l59 61 0
-136 0 -136 -255 0 -255 0 0 210 0 210 193 2 c105 2 194 2 196 1 2 -1 -22 -26
-53 -54z"/>
</g>
</svg>
